# xmcd CD database file
#
# Track frame offsets:
#	150
#	15517
#	32463
#	48087
#	67348
#	84308
#	96226
#	110367
#	121330
#	133082
#	147536
#	161931
#	177358
#	194707
#	207133
#	223617
#	236883
#	253852
#
# Disc length: 3562 seconds
#
# Revision: 0
# Processed by: cddbd v1.4PL0 Copyright (c) Steve Scherf et al.
# Submitted via: CDex 1.50Beta5
#
DISCID=100de812
DTITLE=Garner,Erroll - Hall of fame - Poor Butterfly
DYEAR=2002
DGENRE=Jazz
TTITLE0=When Johnny comes marching home
TTITLE1=It could happen to You
TTITLE2=I don´t know why
TTITLE3=My heart stood still
TTITLE4=When You´re smiling
TTITLE5=Long ago and far away
TTITLE6=Poor Butterfly
TTITLE7=Spring is here
TTITLE8=The petite waltz
TTITLE9=The petite waltz bounce
TTITLE10=Lover
TTITLE11=How high the moon
TTITLE12=People will say we´re in love
TTITLE13=Laura
TTITLE14=I cover the waterfront
TTITLE15=Penthouse serenade
TTITLE16=The way You look tonight
TTITLE17=Body and soul
EXTD=YEAR: 2002
EXTT0=
EXTT1=
EXTT2=
EXTT3=
EXTT4=
EXTT5=
EXTT6=
EXTT7=
EXTT8=
EXTT9=
EXTT10=
EXTT11=
EXTT12=
EXTT13=
EXTT14=
EXTT15=
EXTT16=
EXTT17=
PLAYORDER=
